<?xml version="1.0" encoding="UTF-8" standalone="no"?>
<!-- Created with Inkscape (http://www.inkscape.org/) -->

<svg
   xmlns:dc="http://purl.org/dc/elements/1.1/"
   xmlns:cc="http://creativecommons.org/ns#"
   xmlns:rdf="http://www.w3.org/1999/02/22-rdf-syntax-ns#"
   xmlns:svg="http://www.w3.org/2000/svg"
   xmlns="http://www.w3.org/2000/svg"
   xmlns:sodipodi="http://sodipodi.sourceforge.net/DTD/sodipodi-0.dtd"
   xmlns:inkscape="http://www.inkscape.org/namespaces/inkscape"
   id="svg3021"
   version="1.1"
   inkscape:version="0.48.0 r9654"
   width="464"
   height="512"
   sodipodi:docname="maze01.jpg">
  <metadata
     id="metadata3027">
    <rdf:RDF>
      <cc:Work
         rdf:about="">
        <dc:format>image/svg+xml</dc:format>
        <dc:type
           rdf:resource="http://purl.org/dc/dcmitype/StillImage" />
        <dc:title></dc:title>
      </cc:Work>
    </rdf:RDF>
  </metadata>
  <defs
     id="defs3025" />
  <sodipodi:namedview
     pagecolor="#ffffff"
     bordercolor="#666666"
     borderopacity="1"
     objecttolerance="10"
     gridtolerance="10"
     guidetolerance="10"
     inkscape:pageopacity="0"
     inkscape:pageshadow="2"
     inkscape:window-width="1366"
     inkscape:window-height="706"
     id="namedview3023"
     showgrid="false"
     inkscape:zoom="2.3215366"
     inkscape:cx="253.42939"
     inkscape:cy="541.02157"
     inkscape:window-x="-8"
     inkscape:window-y="-8"
     inkscape:window-maximized="1"
     inkscape:current-layer="svg3021" />
  <path
     style="fill:#000000"
     d="m 10.510926,509.20585 c -2.0146961,-0.94869 -4.8196031,-3.24116 -6.2331281,-5.09439 l -2.570045,-3.3695 0.02196,-90.40561 C 1.7578869,294.36448 -3.6008861,307.44008 43.901989,307.43448 l 31.694241,-0.004 2.76008,-2.37412 c 2.75668,-2.3712 2.76014,-2.39089 2.80576,-15.96454 0.0667,-19.83542 3.76526,-18.09824 -39.23083,-18.42618 -39.1221171,-0.2984 -39.2234871,-0.30782 -39.2234871,-3.64722 0,-3.55041 0.421808,-3.58965 38.3317871,-3.56598 48.5805,0.0303 47.9428,-0.31205 47.45306,25.47804 -0.49548,26.09188 0.47653,25.5 -41.876967,25.5 l -31.796353,0 -2.805763,2.41307 -2.8057641,2.41308 -0.280578,89.38388 -0.280578,89.38389 2.6110481,2.45304 2.611048,2.45304 210.169527,0.30377 c 224.35538,0.32427 223.62145,0.33522 227.34964,-3.39297 l 2.39152,-2.39152 -0.28581,-88.92954 -0.28582,-88.92954 -2.42431,-2.5801 -2.42432,-2.5801 -32.1778,0 c -42.7956,0 -41.76234,0.6235 -42.25841,-25.5 -0.48974,-25.79009 -1.12745,-25.4477 47.45305,-25.47804 37.90998,-0.0237 38.33179,0.0156 38.33179,3.56598 0,3.34768 -0.14247,3.36091 -39.33773,3.65271 l -34.83774,0.25935 -2.53771,2.95161 c -2.49382,2.90055 -2.52968,3.17404 -2.07336,15.81112 0.67711,18.75165 -2.70318,17.17025 37.46472,17.52717 36.21805,0.32182 36.26415,0.33032 39.89918,7.3597 1.16046,2.24408 1.86489,2.72825 2.81825,1.93704 0.92801,-0.77018 1.27106,-0.6662 1.27106,0.38525 0,0.79207 -0.37969,1.20548 -0.84375,0.91867 -0.46405,-0.2868 -0.72655,40.68303 -0.58333,91.04407 0.14323,50.36104 -0.0468,91.56549 -0.4222,91.56545 -0.37544,-4e-5 -0.96836,0.90022 -1.3176,2.00059 -0.34925,1.10037 -2.25701,3.23787 -4.23947,4.75 l -3.60448,2.74933 -218.59479,0.5 C 27.267297,510.90079 13.954598,510.82742 10.510926,509.20585 z m 8.696827,-11.05663 c -7.472537,-4.20072 -7.588636,-4.86642 -7.275849,-41.71848 0.352676,-41.5516 0.993486,-42.99485 19.09159,-42.99845 8.835238,-0.002 11.684259,-1.0592 11.684259,-4.33673 0,-3.96355 -1.804678,-4.66482 -12.004583,-4.66482 -17.936057,0 -18.990831,-2.47458 -18.967878,-44.5 0.02453,-44.91995 -3.0197801,-41.80064 41.49421,-42.51646 37.051978,-0.59582 36.840508,-0.54798 38.049118,-8.60753 1.70101,-11.34316 -0.097,-43.24269 -2.58673,-45.8929 l -2.3124,-2.46143 -41.585867,-0.26084 -41.5858701,-0.26084 0,-3 0,-3 42.0000001,-0.25435 c 57.255297,-0.34673 53.457777,-2.92287 53.483547,36.28184 0.0183,27.90912 0.10957,27.49482 -7.04957,32.01419 l -3.89423,2.45832 -31.297369,0 c -41.721521,0 -37.984613,-3.81338 -37.548849,38.31722 0.372977,36.06031 -0.696166,33.58363 14.971547,34.68169 14.256196,0.99914 16.834924,2.86932 16.834924,12.20922 0,7.88332 -4.275374,10.79187 -15.863349,10.79187 -16.46961,0 -16.136651,-0.77946 -16.136651,37.77603 l 0,29.87534 2.580433,2.42432 2.580434,2.42431 200.16956,0.30645 c 110.09327,0.16855 203.42931,0.0179 207.41344,-0.33474 12.49958,-1.10642 11.75613,1.15788 11.75613,-35.80536 l 0,-31.50692 -2.42431,-2.57972 c -2.30014,-2.44757 -2.94948,-2.57971 -12.6772,-2.57971 l -10.25288,0 -3.07281,-3.72784 c -8.56448,-10.39021 -3.06355,-18.09403 13.76212,-19.27325 15.77899,-1.10586 14.66508,1.66248 14.66508,-36.44612 l 0,-31.39166 -2.42431,-2.58057 -2.42432,-2.58056 -31.57568,-0.0164 c -45.24356,-0.0236 -43.29159,1.6153 -42.85814,-35.98355 0.43395,-37.64157 -3.51112,-35.00186 52.28245,-34.98313 42.51685,0.0143 43.89622,0.14464 43.33749,4.09622 l -0.33749,2.38691 -42,0.5275 c -23.1,0.29013 -42.11911,0.62763 -42.2647,0.75 -3.68683,3.09905 -4.22783,6.78088 -4.23156,28.79819 l -0.004,22.07568 2.58033,2.42432 2.58033,2.42431 32.71712,0.5 c 45.43961,0.69443 42.12248,-2.75534 42.12248,43.80652 0,41.69097 -0.66752,43.19348 -19.1894,43.19348 -7.93406,0 -9.77352,0.30154 -11.15561,1.82874 -4.07086,4.49825 -0.0405,7.17071 10.81752,7.17281 18.65452,0.004 19.48973,1.88922 19.51104,44.04909 0.0184,36.39385 0.0443,36.23907 -6.74719,40.34127 l -4.31788,2.60809 -208.20924,-0.0164 -208.209237,-0.0165 -4,-2.24862 z m 28.896821,-31.54315 c -5.380114,-4.49746 -6.043669,-12.29948 -1.480668,-17.40955 l 2.916152,-3.26578 33.879252,-0.5 c 43.72007,-0.64523 40.28844,1.49906 40.28844,-25.17466 0,-19.21758 1.84912,-22.82534 11.69888,-22.82534 9.402,0 11.30112,4.20929 11.30112,25.04819 0,23.37686 -1.25528,22.06617 21.7118,22.6702 9.23351,0.24284 18.15579,0.85912 19.82729,1.36951 6.99393,2.1356 8.86264,13.19192 3.1633,18.71593 l -3.2976,3.19617 -68.9524,-0.0333 c -64.297744,-0.031 -69.094362,-0.15195 -71.055566,-1.7914 z m 136.668916,-6.21051 c 2.16212,-1.15713 2.57138,-4.9277 0.73426,-6.76482 -0.83523,-0.83523 -6.23073,-1.205 -17.75,-1.21645 -26.09063,-0.0259 -28.04591,-1.88501 -28.04845,-26.66845 -0.002,-19.22529 -1.86569,-24.46299 -7.0388,-19.78139 -1.80889,1.63702 -1.96275,3.15772 -1.96275,19.39877 0,19.6923 -0.16003,20.24963 -7.06603,24.6092 l -3.89423,2.45832 -32.69112,0 c -29.016122,0 -32.896716,0.18605 -34.519876,1.65499 -2.423203,2.19297 -2.307323,3.89639 0.393765,5.78831 2.721191,1.90599 128.327941,2.40284 131.843231,0.52152 z m 38.68563,5.50546 c -3.53906,-3.28161 -3.65327,-3.96204 -3.977,-23.69442 -0.37054,-22.58604 1.15104,-21.17494 -23.27767,-21.58747 l -18.45266,-0.31161 -3.02202,-3.66623 c -5.13272,-6.22688 -3.49423,-15.80448 3.09682,-18.10213 5.12118,-1.78526 101.94899,-1.52475 106.28259,0.28595 7.42938,3.10419 9.18372,12.71804 3.34857,18.35028 l -3.25,3.13698 -18.17213,0.30919 c -17.65276,0.30034 -18.24581,0.37847 -20.75,2.73349 l -2.57787,2.42432 0,18.12952 0,18.12952 -3.29761,3.19616 c -4.4173,4.28142 -11.72324,4.58667 -15.95102,0.66645 z m 11.21345,-7.40454 c 0.5882,-1.09906 1.03585,-8.76338 1.03673,-17.75 0.003,-25.51852 1.05153,-26.58694 26.81982,-27.31574 18.92004,-0.53511 20.17863,-0.81727 20.17863,-4.52383 0,-4.3511 -1.45584,-4.47617 -52.10552,-4.47617 -50.98837,0 -51.89448,0.0791 -51.89448,4.53254 0,3.23958 3.28631,3.96708 20.39909,4.51583 27.07253,0.86813 27.60091,1.39276 27.60091,27.40527 0,12.00272 0.35998,17.50634 1.2,18.34636 1.83712,1.83712 5.60769,1.42786 6.76482,-0.73426 z m 36.10798,6.20642 c -9.56507,-11.60409 -2.13597,-19.2326 18.82642,-19.33177 26.21265,-0.12401 25.4493,0.56027 26.10078,-23.39695 0.56221,-20.67463 1.31891,-22.76224 8.75639,-24.15752 11.66659,-2.18866 14.24361,2.30624 14.24361,24.84406 l 0,17.42139 2.58019,2.42432 2.58019,2.42431 33.66981,0.5 c 24.41764,0.3626 34.274,0.84562 35.86853,1.75774 6.34771,3.6311 7.37065,12.84421 2.00367,18.04609 l -3.2976,3.19617 -69.12959,0 -69.12959,0 z m 137.99294,-4.30734 c 1.09756,-0.5874 1.93426,-2.08617 1.93426,-3.46482 0,-4.23044 -2.12266,-4.4991 -35.68426,-4.51645 -43.73887,-0.0226 -43.30112,0.25 -43.32784,-26.98355 -0.0171,-17.39067 -0.36804,-19.66849 -3.16753,-20.55701 -4.97672,-1.57955 -5.82037,1.39037 -5.82037,20.48949 0,25.75429 -1.34156,27.06752 -27.65139,27.06752 -19.50744,0 -25.33587,2.39338 -18.1261,7.4433 2.72119,1.90599 128.32794,2.40284 131.84323,0.52152 z M 79.29635,417.35367 c -3.32742,-3.95442 -3.3995,-4.39239 -3.90379,-23.72031 -0.5541,-21.23733 -0.51879,-21.18771 -15.109121,-21.23589 -8.115859,-0.0268 -10.484777,-0.37524 -12.178865,-1.7914 -5.379928,-4.49731 -6.043627,-12.29933 -1.48099,-17.40955 l 2.91583,-3.26578 18.83417,-0.28062 C 98.82761,349.19636 98.66746,348.9965 98.6913,387.48457 l 0.0165,26.55384 -3.2976,3.19616 c -4.75488,4.60861 -12.28927,4.66429 -16.1138,0.1191 z m 11.49003,-7.06984 c 2.49486,-4.66169 0.7706,-48.32023 -2.02593,-51.297 -3.10011,-3.29991 -32.758074,-4.03768 -36.223956,-0.9011 -4.715668,4.26762 -0.257923,7.34445 10.643765,7.34656 16.662091,0.003 19.487201,4.06452 19.511041,28.04845 0.0114,11.51927 0.38122,16.91477 1.21645,17.75 1.91905,1.91905 5.61727,1.40996 6.87863,-0.94691 z m 276.67274,7.61719 c -4.7112,-4.36847 -5.68964,-53.77467 -1.21735,-61.47028 5.36444,-9.23077 44.66899,-10.68675 50.83529,-1.88313 6.44442,9.20071 -0.46566,17.88313 -14.23266,17.88313 -15.45888,0 -16.13665,1.03972 -16.13665,24.75417 l 0,16.8535 -3.29761,3.19616 c -4.4173,4.28142 -11.72324,4.58667 -15.95102,0.66645 z m 10.93961,-6.72028 c 0.44496,-0.6875 1.03402,-8.9 1.30902,-18.25 0.70642,-24.01829 3.14873,-27.49523 19.31574,-27.49845 8.96753,-0.002 11.68426,-1.04844 11.68426,-4.50155 0,-3.82545 -2.77315,-4.5 -18.5,-4.5 -22.1651,0 -21.5,-0.95126 -21.5,30.75034 0,16.43862 0.33669,23.18635 1.2,24.04966 1.56953,1.56953 5.46221,1.53954 6.49098,-0.05 z M 128.10457,370.60607 c -5.38032,-4.49764 -6.04372,-12.29966 -1.4803,-17.40955 l 2.91652,-3.26578 27.33348,-0.31453 c 16.87123,-0.19415 28.6796,0.0815 30.85032,0.72028 7.47876,2.2006 9.61444,13.15158 3.68555,18.89808 l -3.2976,3.19617 -28.9524,-0.0333 c -26.13081,-0.03 -29.15736,-0.20461 -31.05557,-1.7914 z m 56.66892,-6.21051 c 2.16212,-1.15713 2.57138,-4.9277 0.73426,-6.76482 -2.08189,-2.08189 -50.62881,-1.6649 -52.97126,0.45499 -2.4232,2.19297 -2.30732,3.89639 0.39377,5.78831 2.68387,1.87985 48.44501,2.34019 51.84323,0.52152 z m 38.68563,5.50546 c -3.53906,-3.28161 -3.65327,-3.96204 -3.977,-23.69442 -0.37054,-22.58604 1.15104,-21.17494 -23.27767,-21.58747 l -18.45266,-0.31161 -3.02202,-3.66623 c -5.13272,-6.22688 -3.49423,-15.80448 3.09682,-18.10213 5.12118,-1.78526 101.94899,-1.52475 106.28259,0.28595 7.42938,3.10419 9.18372,12.71804 3.34857,18.35028 l -3.25,3.13698 -18.17213,0.30919 c -17.65276,0.30034 -18.24581,0.37847 -20.75,2.73349 l -2.57787,2.42432 0,18.12952 0,18.12952 -3.29761,3.19616 c -4.4173,4.28142 -11.72324,4.58667 -15.95102,0.66645 z m 11.21345,-7.40454 c 0.5882,-1.09906 1.03585,-8.76338 1.03673,-17.75 0.003,-25.51852 1.05153,-26.58694 26.81982,-27.31574 18.92004,-0.53511 20.17863,-0.81727 20.17863,-4.52383 0,-4.3511 -1.45584,-4.47617 -52.10552,-4.47617 -50.98837,0 -51.89448,0.0791 -51.89448,4.53254 0,3.23958 3.28631,3.96708 20.39909,4.51583 27.07253,0.86813 27.60091,1.39276 27.60091,27.40527 0,12.00272 0.35998,17.50634 1.2,18.34636 1.83712,1.83712 5.60769,1.42786 6.76482,-0.73426 z m 37.432,8.10959 c -5.38032,-4.49764 -6.04372,-12.29966 -1.4803,-17.40955 l 2.91652,-3.26578 27.33348,-0.31453 c 16.87123,-0.19415 28.6796,0.0815 30.85032,0.72028 7.47876,2.2006 9.61444,13.15158 3.68555,18.89808 l -3.2976,3.19617 -28.9524,-0.0333 c -26.13081,-0.03 -29.15736,-0.20461 -31.05557,-1.7914 z m 56.66892,-6.21051 c 2.16212,-1.15713 2.57138,-4.9277 0.73426,-6.76482 -2.08189,-2.08189 -50.62881,-1.6649 -52.97126,0.45499 -2.4232,2.19297 -2.30732,3.89639 0.39377,5.78831 2.68387,1.87985 48.44501,2.34019 51.84323,0.52152 z M 128.00703,322.18074 c -4.14351,-4.54919 -4.29928,-5.77144 -4.29928,-33.73392 0,-30.07383 0.32752,-31.8888 6.11884,-33.90766 4.31362,-1.50374 7.42994,-1.39312 10.87012,0.38587 5.98235,3.09359 6.01104,3.25844 6.01104,34.53205 l 0,28.58133 -3.29761,3.19616 c -4.27638,4.14483 -12.05452,4.62262 -15.40311,0.94617 z m 10.66554,-7.68426 c 3.08573,-5.76574 0.92629,-52.40282 -2.48706,-53.71265 -5.07079,-1.94584 -9.12092,49.60375 -4.27776,54.44691 1.83712,1.83712 5.60769,1.42786 6.76482,-0.73426 z m 181.33446,7.68426 c -4.14351,-4.54919 -4.29928,-5.77144 -4.29928,-33.73392 0,-30.07383 0.32752,-31.8888 6.11884,-33.90766 4.31362,-1.50374 7.42994,-1.39312 10.87012,0.38587 5.98235,3.09359 6.01104,3.25844 6.01104,34.53205 l 0,28.58133 -3.29761,3.19616 c -4.27638,4.14483 -12.05452,4.62262 -15.40311,0.94617 z m 10.66554,-7.68426 c 3.08573,-5.76574 0.92629,-52.40282 -2.48706,-53.71265 -5.07079,-1.94584 -9.12092,49.60375 -4.27776,54.44691 1.83712,1.83712 5.60769,1.42786 6.76482,-0.73426 z M 173.27918,274.85931 c -1.36382,-1.36382 -1.57143,-5.84632 -1.57143,-33.92857 0,-39.53312 -2.21538,-35.5 19.5,-35.5 18.4482,0 19.5,0.37063 19.5,6.87143 0,5.70582 -0.97952,6.12857 -14.2,6.12857 l -11.8,0 0,22.5 0,22.5 46.5,0 46.5,0 0,-22.5 0,-22.5 -11.42857,0 c -12.88829,0 -14.57143,-0.75081 -14.57143,-6.5 0,-6.09116 1.22651,-6.5 19.5,-6.5 13.5368,0 16.62809,0.27095 17.92857,1.57143 2.05424,2.05424 2.40343,66.19657 0.37143,68.22857 -2.05328,2.05328 -114.16213,1.69501 -116.22857,-0.37143 z M 3.0917939,226.98915 c -1.98628,-5.17616 -3.17199105,-5.01869 41.8523061,-5.55841 l 41.71044,-0.5 2.27661,-2.27714 c 2.2393,-2.23983 2.2766,-2.66124 2.2766,-25.71904 0,-31.32322 4.55216,-27.92522 -37.901218,-28.2917 l -33.348069,-0.28789 -4.125355,-3.8085 -4.125355,-3.80851 0,-65.441715 0,-65.441716 2.25,-4.46189 c 4.308702,-8.544424 -3.436055,-7.958782 105.249997,-7.958782 120.27806,0 107.45651,-4.299977 107.48355,36.046892 0.0174,25.939176 0.19296,26.949996 4.68127,26.949996 3.91708,0 4.3351,-2.66849 4.33673,-27.684255 0.002,-26.194217 0.43218,-28.42399 6.32143,-32.744656 2.8036,-2.056868 3.49005,-2.072863 100,-2.330119 109.34828,-0.291478 101.86388,-0.802115 106.3955,7.259034 l 2.24862,4 0.0164,65.632356 0.0165,65.632345 -4.05678,4.05677 -4.05677,4.05678 -33.36412,0.31087 -33.36412,0.31087 -2.64349,2.4848 -2.64349,2.4848 0.31438,23.23932 c 0.30632,22.64279 0.37283,23.29774 2.59108,25.5152 l 2.2767,2.27588 39.7233,0.25074 c 45.06891,0.28448 44.47498,0.23007 44.03637,4.03414 l -0.31306,2.71512 -43.04315,0.26047 -43.04316,0.26047 -3.60138,-3.29874 c -5.20895,-4.77121 -5.80062,-8.20822 -5.80518,-33.7222 -0.006,-35.31417 -2.49994,-33.32645 42.65352,-34 l 33.51897,-0.5 1.96433,-2.42764 c 1.91354,-2.36487 1.95646,-4.0628 1.66019,-65.670195 l -0.30414,-63.242568 c -1.62545,-1.729696 -3.2509,-3.459398 -4.87635,-5.1891 l -95.23148,0.264756 -95.23148,0.264756 c -1.72023,1.616206 -3.44046,3.232417 -5.16069,4.848628 l 0,26.129519 0,26.129519 -3.29761,3.19617 c -4.75487,4.6086 -12.28926,4.66429 -16.11379,0.11909 -3.48136,-4.13736 -3.4673,-4.02094 -3.81788,-31.611863 -0.30466,-23.976106 -0.32853,-24.211471 -2.71335,-26.75 l -2.406,-2.561063 -94.39143,0 c -100.038451,0 -97.098434,-0.14678 -99.749587,4.979984 -2.774245,5.364799 -2.217444,127.069617 0.592991,129.615017 1.951366,1.76735 4.46218,1.94243 34.75,2.4231 46.104106,0.73168 43.146656,-1.66613 43.146656,34.98189 0,27.35075 -0.28264,28.82559 -6.42163,33.50803 l -3.26715,2.49197 -42.686993,0 c -36.252756,0 -42.7703761,-0.21729 -43.2401831,-1.44159 z M 128.00703,226.18074 c -4.30354,-4.72489 -4.29928,-4.66774 -4.29928,-57.73392 0,-56.34329 -0.0624,-55.75288 6.11884,-57.90766 4.27601,-1.49063 7.42583,-1.39524 10.75365,0.32564 5.39347,2.78907 5.59131,3.53779 6.12751,23.18885 0.66476,24.36277 -0.99542,22.69115 23.27691,23.43721 20.0357,0.61584 20.57752,0.73057 23.02601,4.87553 2.91988,4.94297 2.25358,11.13264 -1.60053,14.86818 l -3.2976,3.19617 -17.26814,0 c -24.56889,0 -24.13665,-0.4433 -24.13665,24.75417 l 0,16.8535 -3.29761,3.19616 c -4.27638,4.14483 -12.05452,4.62262 -15.40311,0.94617 z m 10.3917,-7 c 0.44496,-0.6875 1.03402,-8.9 1.30902,-18.25 0.77123,-26.22173 2.03699,-27.49596 27.31574,-27.49845 16.76509,-0.002 19.68426,-0.64478 19.68426,-4.33673 0,-4.33872 -1.39843,-4.66482 -20.00458,-4.66482 l -17.60459,0 -3.58995,-3.28827 c -4.81482,-4.4102 -5.78866,-8.59382 -5.7953,-24.89663 -0.007,-17.69377 -1.99387,-22.85063 -7.04283,-18.28139 -2.4134,2.1841 -3.14179,98.88725 -0.76275,101.26629 1.56953,1.56953 5.46221,1.53954 6.49098,-0.05 z m 181.06039,6.72028 c -3.47992,-3.22677 -3.56294,-3.71272 -4.05904,-23.75848 -0.56998,-23.03152 0.8459,-21.7118 -23.29384,-21.7118 l -18.25288,0 -3.07281,-3.72784 c -10.1566,-12.32173 -3.25448,-18.44654 21.65029,-19.21204 24.06481,-0.73968 22.29002,1.05281 23.14099,-23.37174 0.80673,-23.15469 3.73642,-27.52151 15.99922,-23.84748 7.34032,2.19921 7.1367,0.50539 7.1367,59.36723 l 0,52.39954 -3.29761,3.19616 c -4.4173,4.28142 -11.72324,4.58667 -15.95102,0.66645 z m 11.21345,-7.40454 c 3.08616,-5.76655 1.08503,-100.59776 -2.14445,-101.62275 -4.91866,-1.56112 -5.82037,1.46892 -5.82037,19.55836 0,26.65617 -1.29535,27.99865 -27.01565,27.99865 -17.90371,0 -20.98435,0.67506 -20.98435,4.59828 0,3.52902 4.05734,4.40168 20.47251,4.40327 25.74571,0.002 27.48492,1.77568 27.51104,28.04845 0.0115,11.51927 0.38122,16.91477 1.21645,17.75 1.83712,1.83712 5.60769,1.42786 6.76482,-0.73426 z M 3.9577529,217.76846 c -1.792453,-0.72327 -1.544219,-5.01084 0.331787,-5.73073 0.869983,-0.33385 17.2698901,-0.60699 36.4442371,-0.60699 l 34.862453,0 2.76008,-2.37412 c 2.75668,-2.3712 2.76014,-2.39089 2.80576,-15.96454 0.0663,-19.72931 3.43673,-18.03996 -37.230919,-18.66134 C 8.4780819,173.88903 8.7133119,173.92672 4.2484009,168.07292 l -2.540648,-3.33096 0.02196,-74.405605 C 1.7543129,6.986546 1.5027329,9.964905 8.8996089,5.455147 12.190407,3.4488 13.357772,3.438206 231.55338,3.434487 l 219.34563,-0.0037 2.91946,2.078838 c 1.6057,1.143362 3.61569,3.425205 4.46664,5.070763 1.16046,2.244075 1.86489,2.728249 2.81825,1.937038 0.92801,-0.770179 1.27106,-0.666203 1.27106,0.385249 0,0.792074 -0.38062,1.204899 -0.84582,0.917388 -0.46521,-0.28751 -0.72771,33.482335 -0.58334,75.044102 0.14437,41.561755 -0.0447,75.566785 -0.42012,75.566725 -0.37544,-6e-5 -0.96836,0.90019 -1.3176,2.00056 -0.34925,1.10037 -2.25566,3.23787 -4.23647,4.75 l -3.60148,2.74933 -32.91882,0.5 -32.91882,0.5 -2.53755,2.95161 c -2.49361,2.90049 -2.52951,3.17428 -2.07319,15.81112 0.68028,18.83946 -3.34774,17.11638 41.5628,17.77957 20.19806,0.29827 36.83624,0.63577 36.97374,0.75 0.97052,0.80631 -0.0528,5.10993 -1.33179,5.60071 -0.86998,0.33385 -17.85748,0.60531 -37.75,0.60325 -47.76406,-0.005 -45.97202,0.95734 -46.46266,-24.949 -0.48713,-25.72091 -0.10109,-25.97381 39.79445,-26.06885 45.58511,-0.1086 40.15327,10.68367 39.79249,-79.061705 l -0.29249,-72.756811 c -1.61621,-1.719966 -3.23242,-3.439926 -4.84863,-5.159887 l -216.76992,0 -216.769922,0 -2.805763,2.413022 -2.8057641,2.413021 0,73.728525 0,73.728515 2.8217361,2.10845 c 2.694628,2.01348 4.248724,2.13098 34.5,2.60846 42.724323,0.67435 42.183993,0.36029 42.152563,24.5 -0.0352,27.05929 0.93079,26.51602 -46.974299,26.41731 -20.075,-0.0414 -37.0625001,-0.30218 -37.7500001,-0.57959 z M 223.45912,177.90102 c -3.53906,-3.28161 -3.65327,-3.96204 -3.977,-23.69442 -0.37054,-22.58604 1.15104,-21.17494 -23.27767,-21.58747 l -18.45266,-0.31161 -3.02202,-3.66623 c -5.13272,-6.22688 -3.49423,-15.80448 3.09682,-18.10213 5.12118,-1.78526 101.94899,-1.52475 106.28259,0.28595 7.42938,3.10419 9.18372,12.71804 3.34857,18.35028 l -3.25,3.13698 -18.17213,0.30919 c -17.65276,0.30034 -18.24581,0.37847 -20.75,2.73349 l -2.57787,2.42432 0,18.12952 0,18.12952 -3.29761,3.19616 c -4.4173,4.28142 -11.72324,4.58667 -15.95102,0.66645 z m 11.21345,-7.40454 c 0.5882,-1.09906 1.03585,-8.76338 1.03673,-17.75 0.003,-25.51852 1.05153,-26.58694 26.81982,-27.31574 18.92004,-0.53511 20.17863,-0.81727 20.17863,-4.52383 0,-4.3511 -1.45584,-4.47617 -52.10552,-4.47617 -50.98837,0 -51.89448,0.0791 -51.89448,4.53254 0,3.23958 3.28631,3.96708 20.39909,4.51583 27.07253,0.86813 27.60091,1.39276 27.60091,27.40527 0,12.00272 0.35998,17.50634 1.2,18.34636 1.83712,1.83712 5.60769,1.42786 6.76482,-0.73426 z M 46.780557,128.7029 c -5.183265,-6.2882 -3.579056,-15.85422 3.046035,-18.16374 4.842075,-1.68796 38.096618,-1.46306 42.282588,0.28595 7.46184,3.11775 9.18173,12.7096 3.30097,18.40946 l -3.29761,3.19617 -21.12959,0 -21.129589,0 z m 41.992933,-4.30734 c 1.09756,-0.5874 1.93426,-2.08617 1.93426,-3.46482 0,-3.89107 -2.72061,-4.5 -20.105515,-4.5 -16.747221,0 -19.894482,0.72744 -19.894482,4.59828 0,4.05731 31.559727,6.84845 38.065737,3.36654 z m 279.33108,6.21051 c -5.37993,-4.49731 -6.04363,-12.29933 -1.48099,-17.40955 l 2.91583,-3.26578 19.33417,-0.32283 c 11.51702,-0.1923 20.75609,0.0989 22.85101,0.72029 7.47989,2.21857 9.61302,13.16124 3.68555,18.90637 -5.31229,6.12474 -16.33402,3.17545 -24.25,3.16287 -18.49687,-0.0294 -21.19887,-0.23931 -23.05557,-1.7914 z m 40.66892,-6.21051 c 2.16212,-1.15713 2.57138,-4.9277 0.73426,-6.76482 -4.02599,-4.02599 -38.8,-0.98032 -38.8,3.39828 0,4.05731 31.55972,6.84845 38.06574,3.36654 z M 50.920432,82.292075 c -8.933286,-5.72029 -9.050758,-28.981473 -0.172846,-34.225785 4.646395,-2.744693 37.012324,-2.38446 41.619984,0.46323 9.66043,5.970477 8.51474,29.099005 -1.68933,34.103195 -5.70118,2.79593 -35.254919,2.54271 -39.757808,-0.34064 z m 37.958578,-7.51631 c 2.96433,-2.68268 2.6666,-17.64475 -0.39376,-19.788312 -4.82298,-3.378144 -33.506089,-1.910225 -36.012184,1.843002 -1.527605,2.2878 -0.84862,15.85076 0.889675,17.77155 2.377559,2.62718 32.641669,2.77524 35.516269,0.17376 z m 42.04142,7.51631 c -8.93329,-5.72029 -9.05076,-28.981473 -0.17285,-34.225785 4.74093,-2.800535 52.96642,-2.412831 57.61999,0.46323 9.66043,5.970477 8.51474,29.099005 -1.68933,34.103195 -5.82922,2.85872 -51.19424,2.58157 -55.75781,-0.34064 z m 55.78732,-17.45961 c 0,-11.806914 0.95201,-11.401716 -26.78825,-11.401716 -28.45577,0 -28.17159,-0.120151 -28.19644,11.921256 -0.0239,11.58287 -1.26666,11.07874 27.31094,11.07874 18.73318,-1.19801 27.63798,5.30966 27.67375,-11.59828 z m 82,11.9055 0.0354,-10.90361 c 0.0628,-19.31158 0.19925,-19.388335 34.49278,-19.397017 33.60606,-0.0085 35.41785,1.001046 35.45672,19.756977 0.0344,16.58294 -3.315,18.23643 -36.94063,18.23643 -18.98786,-0.0673 -20.77071,3.63811 -33.04427,-7.69278 z m 60.17126,-1.9622 c 2.77594,-2.51219 2.65191,-16.52184 -0.17126,-19.34502 -2.4777,-2.477696 -45.29209,-3.084721 -50,-0.708899 -3.29635,1.663489 -4.33927,16.571549 -1.38746,19.833259 2.44272,2.69918 48.60169,2.89673 51.55872,0.22066 z m 35.86414,-8.94141 c 0.0599,-18.435364 1.3608,-19.387831 26.49278,-19.397017 24.49586,-0.009 27.42011,2.095249 27.45672,19.756977 0.0322,15.51488 -4.28683,18.23643 -28.94063,18.23643 l -16.71149,0 c -9.1531,-8.12913 -8.33793,-6.10643 -8.29738,-18.59639 z m 44.13586,8.94141 c 2.77594,-2.51219 2.65191,-16.52184 -0.17126,-19.34502 -2.45335,-2.453349 -29.42869,-3.015787 -34,-0.708899 -3.29635,1.663489 -4.33927,16.571549 -1.38746,19.833259 2.41677,2.6705 32.6444,2.85808 35.55872,0.22066 z"
     id="path3031"
     inkscape:connector-curvature="0"
     sodipodi:nodetypes="sscsscssssssscccccccsscccccssssscssssssssssscsscscsssssscccccssscsssssscccssscsscssscccsssscscccccsssscssccccccscssssssscsccssssssscssssssscsssscsscccssscssssssssssssscccssscccsssssssssscsssscsscsccssscsssssssscsssscssssscscscscsccsssssssscsssscsscccssscsssssssscscscscsccsssssssssscssssssssssscssssssssssscccccccsssssssscssscccccsssscssscccccccccsscsscccssscsscccccccsssscsssssscsssssssssscsscsssscsscscsssssscssssscssssssscssscsscsssscssscssssssssscccsssccssssccccccccssssccssscsssscsscccssscsssssssssssscccsssssscscscccccssssssssssssssssssscsscccsssccssssscsssccsssss" />
</svg>
